<?xml version="1.0" encoding="UTF-8" standalone="no"?>
<svg
   xmlns:dc="http://purl.org/dc/elements/1.1/"
   xmlns:cc="http://creativecommons.org/ns#"
   xmlns:rdf="http://www.w3.org/1999/02/22-rdf-syntax-ns#"
   xmlns:svg="http://www.w3.org/2000/svg"
   xmlns="http://www.w3.org/2000/svg"
   xmlns:sodipodi="http://sodipodi.sourceforge.net/DTD/sodipodi-0.dtd"
   xmlns:inkscape="http://www.inkscape.org/namespaces/inkscape"
   version="1.1"
   id="Layer_1"
   x="0px"
   y="0px"
   width="85px"
   height="85px"
   viewBox="0 0 80 80"
   enable-background="new 0 0 80 80"
   xml:space="preserve"
   sodipodi:docname="logo.svg"
   inkscape:version="0.92.1 r15371"><metadata
   id="metadata15"><rdf:RDF><cc:Work
       rdf:about=""><dc:format>image/svg+xml</dc:format><dc:type
         rdf:resource="http://purl.org/dc/dcmitype/StillImage" /><dc:title></dc:title></cc:Work></rdf:RDF></metadata><defs
   id="defs13" /><sodipodi:namedview
   pagecolor="#000000"
   bordercolor="#666666"
   borderopacity="1"
   objecttolerance="10"
   gridtolerance="10"
   guidetolerance="10"
   inkscape:pageopacity="0"
   inkscape:pageshadow="2"
   inkscape:window-width="1920"
   inkscape:window-height="1017"
   id="namedview11"
   showgrid="false"
   inkscape:zoom="2.7764706"
   inkscape:cx="52.67675"
   inkscape:cy="34.613756"
   inkscape:window-x="-8"
   inkscape:window-y="-8"
   inkscape:window-maximized="1"
   inkscape:current-layer="Layer_1" />
	<g
   id="g4">
		<path
   d="M40,0c22.091,0,40,17.909,40,40S62.091,80,40,80S0,62.091,0,40S17.909,0,40,0z"
   id="path2"
   fill="#FFFFFF" />
	</g>
	
<g
   id="g3748"
   transform="matrix(0.08303269,0,0,0.08303269,19.723057,18.451086)"><g
     id="g3691"
     style="fill:#b92545;fill-opacity:1"
     transform="translate(-17.251823,4.3129557)">
	<g
   id="g3689"
   style="fill:#b92545;fill-opacity:1">
		<path
   id="path3687"
   d="m 531.215,103.887 c -2.447,-3.06 -5.916,-4.998 -10.402,-5.814 L 271.116,47.889 c -2.448,-0.408 -4.896,-0.408 -7.343,0 L 14.076,98.073 C 9.588,98.889 6.12,100.827 3.672,103.887 1.224,106.947 0,110.721 0,115.209 v 147.492 9.183 147.492 c 0,4.484 1.224,8.26 3.672,11.318 2.448,3.063 5.916,4.998 10.404,5.814 l 249.696,50.184 c 2.448,0.816 4.896,0.816 7.343,0 l 249.697,-50.184 c 4.486,-0.816 7.955,-2.754 10.402,-5.814 2.447,-3.059 3.674,-6.834 3.674,-11.32 V 271.882 262.7 115.209 c 10e-4,-4.488 -1.226,-8.262 -3.673,-11.322 z M 232.56,332.47 c -17.136,37.941 -43.86,56.916 -80.172,56.916 -15.096,0 -28.764,-2.959 -41.004,-8.875 C 99.144,374.595 88.638,366.333 79.866,355.726 71.094,345.117 64.26,332.367 59.364,317.476 54.468,302.583 52.02,285.958 52.02,267.597 c 0,-18.36 2.448,-35.087 7.344,-50.184 4.896,-15.097 11.73,-27.948 20.502,-38.556 8.772,-10.608 19.278,-18.87 31.518,-24.786 12.24,-5.916 25.908,-8.874 41.004,-8.874 35.904,0 62.424,17.952 79.56,53.856 1.632,2.856 1.836,6.324 0.612,10.404 -1.632,3.672 -4.08,6.12 -7.344,7.344 l -28.764,12.852 c -3.264,1.632 -6.63,1.734 -10.098,0.306 -3.468,-1.428 -6.018,-3.774 -7.65,-7.038 -2.04,-4.488 -5.202,-8.976 -9.486,-13.464 -4.284,-4.488 -9.894,-6.732 -16.83,-6.732 -11.016,0 -20.094,5.916 -27.234,17.748 -7.14,11.832 -10.71,27.54 -10.71,47.124 0,19.176 3.57,34.68 10.71,46.512 7.14,11.832 16.218,17.748 27.234,17.748 8.16,0 14.28,-2.854 18.36,-8.564 4.08,-5.715 6.732,-10.201 7.956,-13.467 1.224,-3.672 3.672,-6.119 7.344,-7.344 3.264,-2.041 6.732,-2.041 10.404,0 l 29.376,12.24 c 3.264,2.039 5.508,4.488 6.732,7.344 1.224,3.671 1.224,7.138 0,10.404 z m 249.085,0 c -17.137,37.941 -43.861,56.916 -80.172,56.916 -15.1,0 -28.768,-2.959 -41.004,-8.875 -12.242,-5.916 -22.748,-14.178 -31.521,-24.785 -8.77,-10.609 -15.604,-23.359 -20.502,-38.25 -4.895,-14.893 -7.344,-31.518 -7.344,-49.879 0,-18.36 2.449,-35.087 7.344,-50.184 4.898,-15.096 11.732,-27.948 20.502,-38.556 8.773,-10.608 19.279,-18.87 31.521,-24.786 12.236,-5.916 25.904,-8.874 41.004,-8.874 36.311,0 63.035,17.952 80.172,53.856 1.223,3.264 1.223,6.732 0,10.404 -1.631,3.672 -3.877,6.12 -6.732,7.344 l -29.377,12.852 c -3.264,1.632 -6.525,1.734 -9.791,0.306 -3.264,-1.428 -5.713,-3.774 -7.344,-7.038 -2.041,-4.488 -5.303,-8.976 -9.793,-13.464 -4.488,-4.488 -10.199,-6.732 -17.135,-6.732 -11.02,0 -19.992,5.916 -26.932,17.748 -6.934,11.832 -10.4,27.54 -10.4,47.124 0,19.176 3.467,34.68 10.4,46.512 6.939,11.832 15.912,17.748 26.932,17.748 8.158,0 14.277,-2.854 18.357,-8.566 4.08,-5.712 6.732,-10.199 7.955,-13.465 1.227,-3.264 3.672,-5.713 7.346,-7.344 3.674,-2.041 7.141,-2.041 10.402,0 l 29.377,12.24 c 3.672,2.447 6.119,4.895 7.346,7.344 1.224,4.08 1.019,7.546 -0.611,10.404 z"
   inkscape:connector-curvature="0"
   style="fill:#b92545;fill-opacity:1" />
	</g>
</g><g
     id="g3693">
</g><g
     id="g3695">
</g><g
     id="g3697">
</g><g
     id="g3699">
</g><g
     id="g3701">
</g><g
     id="g3703">
</g><g
     id="g3705">
</g><g
     id="g3707">
</g><g
     id="g3709">
</g><g
     id="g3711">
</g><g
     id="g3713">
</g><g
     id="g3715">
</g><g
     id="g3717">
</g><g
     id="g3719">
</g><g
     id="g3721">
</g></g></svg>